<svg xmlns="http://www.w3.org/2000/svg" width="12" height="12" viewBox="0 0 12 14">
  <polygon fill="#333333" points="6.552 .824 6.552 2.536 7.76 1.44 8.352 2.096 6.552 3.744 6.552 5.4 6.896 5.6 7.248 5.808 8.672 5.008 9.176 2.608 10.048 2.808 9.712 4.408 11.2 3.504 11.752 4.448 10.264 5.304 11.808 5.816 11.544 6.656 9.2 5.912 7.776 6.712 7.776 7.512 9.2 8.312 11.52 7.568 11.784 8.424 10.24 8.912 11.728 9.776 11.176 10.728 9.688 9.872 10.024 11.472 9.2 11.688 8.696 9.288 7.272 8.488 6.576 8.896 6.576 10.496 8.376 12.096 7.784 12.76 6.576 11.664 6.576 13.392 5.448 13.392 5.448 11.736 4.24 12.832 3.648 12.168 5.448 10.568 5.448 8.968 5.104 8.76 4.752 8.56 3.344 9.36 2.824 11.76 1.952 11.576 2.288 9.976 .8 10.776 .248 9.824 1.736 8.96 .192 8.472 .456 7.616 2.8 8.36 4.224 7.56 4.224 6.76 2.8 5.912 .48 6.656 .192 5.816 1.736 5.304 .248 4.448 .8 3.504 2.288 4.36 1.952 2.76 2.8 2.576 3.304 4.976 4.728 5.776 5.08 5.568 5.448 5.4 5.448 3.8 3.648 2.096 4.24 1.44 5.448 2.536 5.448 .824"/>
</svg>
