<svg xmlns="http://www.w3.org/2000/svg" width="12" height="12" viewBox="0 0 18 16">
  <path fill="#333333" d="M18.42,6.28 C18.7528852,6.59897628 18.9253485,7.05031654 18.89,7.51 L18.89,15.67 C18.8688351,16.6220709 18.1020709,17.3888351 17.15,17.41 L2.84,17.41 C2.37899092,17.4124919 1.93745924,17.2242981 1.62,16.89 C1.28669717,16.5718504 1.09869531,16.1307692 1.1,15.67 L1.1,7.51 C1.09712785,7.04599941 1.2851611,6.60122845 1.62,6.28 C1.94117853,5.95232674 2.38117232,5.76839491 2.84,5.77 L6.4,5.77 L6.4,4.23 C6.66,3.14 7.2,2.59 8,2.59 L12.07,2.59 C12.86,2.59 13.4,3.14 13.67,4.23 L13.67,5.77 L17.22,5.77 C17.6728171,5.76921546 18.1063016,5.95344636 18.42,6.28 Z M12.06,5.77 L12.06,4.91 C11.93,4.42 11.66,4.17 11.26,4.17 L8.79,4.17 C8.39,4.17 8.12,4.42 7.99,4.91 L7.99,5.77 L12.06,5.77 Z" transform="translate(-1 -2)"/>
</svg>
