<svg xmlns="http://www.w3.org/2000/svg" xmlns:xlink="http://www.w3.org/1999/xlink" width="14" height="12">
  <defs>
    <path id="a" d="M13.14 1.203a.605.605 0 0 1 .247 0c.084.032.16.082.224.146l.919.918c.05.068.095.139.134.213.038.08.057.169.056.258a.66.66 0 0 1 0 .302.638.638 0 0 1-.134.202L6.32 11.597 1.47 6.624a.638.638 0 0 1-.19-.224.66.66 0 0 1 0-.258.594.594 0 0 1 0-.257.717.717 0 0 1 .146-.213l.974-.918a.426.426 0 0 1 .202-.146.683.683 0 0 1 .268 0 .571.571 0 0 1 .247 0c.08.033.153.082.213.146l2.99 2.979 6.34-6.34a.549.549 0 0 1 .223-.145.66.66 0 0 1 .258-.045z"/>
  </defs>
  <use fill="#00BA69" xlink:href="#a" fill-rule="evenodd" transform="translate(-.8 -.4)"/>
</svg>
